<svg version="1.1" xmlns="http://www.w3.org/2000/svg" xmlns:xlink="http://www.w3.org/1999/xlink" width="233.34882" height="235.52669" viewBox="0,0,233.34882,235.52669"><g transform="translate(-196.89652,-26.41133)"><g data-paper-data="{&quot;isPaintingLayer&quot;:true}" fill="#000000" fill-rule="nonzero" stroke="none" stroke-width="0.5" stroke-linecap="butt" stroke-linejoin="miter" stroke-miterlimit="10" stroke-dasharray="" stroke-dashoffset="0" style="mix-blend-mode: normal"><path d="M336.06116,221.20637c-1.60046,1.92056 -3.52101,0.32009 -3.52101,0.32009l-1.84787,-1.65377c-0.14785,-0.21956 -1.44035,-2.5727 -2.30121,-2.74456c-3.86679,-0.77193 -7.04178,4.11147 -11.16467,3.20884c-1.2705,-0.27815 -1.71404,-1.95659 -2.56799,-2.93756c-1.20249,-1.38137 -3.12156,-3.34359 -5.15186,-3.46499c-2.05678,-0.12298 -3.94476,3.04297 -6.03596,1.88107c-2.97791,-1.65456 -1.86724,-5.23325 -1.46612,-7.52304c-0.31916,-4.76853 -6.40636,-5.57032 -10.47303,-5.11204c-1.40837,0.15871 -6.08236,1.17409 -7.33609,1.83505c-4.93234,2.6003 -8.21839,5.94858 -9.31303,7.1299c-1.77542,1.91599 -2.60446,7.86806 -4.7972,9.13556c-1.50371,0.86921 -5.6019,-3.45202 -7.07803,-4.0054c-1.53456,-0.59102 -5.39595,-2.75785 -7.18977,-2.23381c-2.76596,0.80804 -3.9552,6.22095 -8.59909,3.91489c-0.92229,-0.45799 -1.76541,-5.05968 -2.24461,-6.43656c-0.96222,-2.76477 -3.77505,-5.39338 -6.30546,-6.81781c-2.80256,-1.57763 -5.44896,-0.54436 -8.25702,0.39499c-0.38697,0.12945 -2.6839,0.60573 -2.98872,1.49156c-0.21218,0.6166 -0.00663,1.30416 -0.00995,1.95624c0,0 -0.20762,2.49137 -2.69898,2.28375c-2.49137,-0.20762 -2.28375,-2.69898 -2.28375,-2.69898c0.15226,-1.21492 -0.08604,-2.54724 0.45679,-3.64476c2.76467,-5.58972 13.24945,-6.84108 18.1595,-4.1812c3.66746,1.98675 7.17232,5.62692 8.63054,9.51844c0.31868,0.85047 0.6956,1.71778 0.77329,2.61945c0.78821,-0.61388 3.2834,-3.07086 4.25252,-3.27412c3.28673,-0.68937 7.13488,1.30243 10.07998,2.43369c0.32602,0.1223 1.59009,1.83593 2.71793,1.11906c0.45159,-0.28704 1.9712,-3.46394 4.22482,-6.23087c1.44889,-1.77891 3.74882,-3.38836 4.44788,-3.95144c-0.75978,-5.71724 -0.74544,-14.28642 -2.19513,-25.48591c-1.82918,-14.13125 -4.98573,-31.97277 -7.6248,-47.74131c-3.58369,-21.41268 -7.82209,-40.01544 -8.89014,-43.74762c0,0 -0.06568,-0.22988 -0.08533,-0.56778c-3.85204,0.44537 -7.61599,1.28911 -10.87817,3.39104c0,0 -1.27114,0.80891 -2.46777,0.18395c-1.69752,-0.03854 -2.21216,-1.83979 -2.21216,-1.83979c-0.63431,-2.37046 -1.92525,-4.24947 -3.32803,-6.09419c-1.05714,0.80809 -2.43464,0.25709 -2.43464,0.25709l-0.92575,-0.38435c-3.37554,-0.96535 -6.52396,-1.61397 -9.79077,-1.95461c0.48687,0.97427 0.94537,1.97594 1.34655,3.03029c0.49564,1.3026 1.33782,2.65645 1.10931,4.0313c-1.27476,7.66956 -10.58324,4.12424 -15.64246,5.41835c-2.55781,0.65427 -5.21052,2.92654 -8.1158,0.79775c-1.44792,-1.06095 -1.52506,-3.25001 -2.28759,-4.87501c-0.83684,-2.74814 -1.48488,-5.55366 -2.38808,-8.28071c-0.15751,-0.47558 -2.46623,-5.78199 -2.46572,-5.83741c0.05633,-6.12033 8.46458,-8.18308 12.65926,-10.6572c0.9552,-0.56339 1.69076,-1.59206 2.77159,-1.84026c1.6936,-0.38891 3.67526,-0.8025 5.21305,0.00669c1.23425,0.64946 1.24426,2.49674 1.89191,3.73195c0.05273,0.10057 0.09229,0.22709 0.13097,0.35695c0.66988,-0.20404 1.24516,-0.0569 1.68755,0.18301c0.80179,-0.69148 1.41044,-1.91373 2.33458,-2.45048c2.58763,-1.50292 5.69391,-1.69599 8.59631,-2.11147c-0.00279,-0.02035 -0.00561,-0.04071 -0.00844,-0.06109c-0.2153,-1.54553 -1.39933,-6.2991 -0.56445,-7.12826c0.64449,-0.64007 2.39043,-0.57417 4.12188,-0.45567c-1.60056,-2.36129 -2.61683,-5.32772 -0.73121,-7.99886c0.76552,-1.08443 2.12267,-1.67602 3.63426,-2.03354c-0.595,-2.51924 -1.04271,-3.57084 -0.31496,-6.43785c2.92558,-11.52554 18.41875,-13.78054 26.33422,-5.82804c2.34018,2.35113 3.38756,5.6898 3.98257,8.81165l0.1627,0.63294c1.02988,-0.21817 2.04953,-0.35031 3.03652,-0.06293c4.504,1.31139 3.76326,2.80596 4.30048,6.43746l0.21688,1.48769c0,0 0.0676,0.47319 -0.06323,1.03531c1.16746,0.13634 2.17176,0.28796 2.38215,0.42444c1.71092,1.10991 2.75063,3.82658 3.46769,5.94766c23.00971,-1.5158 46.04392,-1.65322 69.14979,-1.63619c16.31431,-1.35952 32.78339,1.04553 49.14268,-0.45886l0.05783,-0.00026c-0.13907,-2.22623 2.1498,-2.55321 2.1498,-2.55321l2.36809,-0.22954c4.39108,0.67574 11.03217,0.06029 13.91429,4.236c0.73791,1.0691 0.4094,2.56609 0.57079,3.85506c0.42926,3.42835 1.50813,7.64038 -2.10341,10.04438c-0.57906,0.38545 -1.22767,0.60313 -1.91699,0.70449c0.08004,12.00607 1.82173,23.813 2.32836,35.82087c0.19995,4.73907 0.03706,9.50931 0.46675,14.23587c0.00907,12.76542 4.51563,106.47601 5.36466,119.20163l0.21378,1.44637c0,0 0.0456,0.31924 -0.0106,0.74478c0.03533,0.02291 0.07035,0.04704 0.10493,0.07246l0.00164,-0.00329l2.28531,1.14265c0.84562,0.40086 1.43041,1.26229 1.43041,2.26029c0,1.27698 -0.95743,2.33035 -2.19361,2.48141c0.18648,0.38975 0.30196,0.80147 0.31708,1.23727c0.00173,0.05002 -4.6152,5.29966 -5.15655,6.48073c-0.51227,1.11763 6.23307,3.67213 3.84551,0.99756l0.18286,-2.41917c0,0 0.79057,-2.37171 3.16228,-1.58114c1.99811,0.66603 1.75173,2.45432 1.62453,3.00118c0.43791,0.96932 1.01011,1.93884 0.73397,2.90706c-1.5471,5.42461 -6.96954,4.57884 -10.41985,2.62235c-1.05567,-0.59861 -2.47439,-0.8376 -3.13073,-1.85839c-2.13847,-3.3259 -0.81734,-5.14202 0.79397,-7.92746c0.30926,-0.53462 0.65498,-1.34578 1.13806,-1.96266c-0.44727,-0.04195 -0.84576,-0.17791 -1.10799,-0.51362c-1.23436,-1.58027 -2.61435,-3.84542 -1.88416,-5.71296c0.39765,-1.01701 1.69655,-1.06026 2.97336,-1.08248c0.11482,-0.06668 0.23544,-0.12449 0.36091,-0.17247c-0.00074,-0.00463 -0.00108,-0.00701 -0.00108,-0.00701l-0.25297,-1.82088c-0.84994,-12.75907 -5.3803,-106.50766 -5.37059,-119.30765c-0.42964,-4.72611 -0.27191,-9.49719 -0.46675,-14.23587c-0.50381,-12.25278 -2.28516,-24.2978 -2.33528,-36.5572c-0.96814,-0.21585 -1.89187,-0.43027 -2.70262,-0.52091c-1.76812,-0.19768 -3.92383,0.66267 -5.31914,-0.44115c-0.12246,-0.09688 -0.22607,-0.20553 -0.31363,-0.32413c-0.31655,0.06813 -0.54295,0.06813 -0.54295,0.06813l-0.9598,-0.00864c-4.9917,0.41594 -9.86653,1.78404 -14.90814,1.39944c-3.51336,-0.26802 -6.59919,-1.06916 -10.18633,-0.92567c-2.95971,0.11839 -5.84178,0.69658 -8.77771,0.9285c-4.43586,0.3504 -8.97294,-0.12843 -13.4212,0.00606c-4.39649,0.13293 -8.81672,0.63426 -13.21439,0.92921c-3.36453,0.22991 -6.44794,1.15624 -9.82319,1.40201c-3.11315,0.22669 -6.35598,-0.40524 -9.4453,-0.01123c-2.8985,0.36968 -5.61318,1.27655 -8.57503,1.41439c-8.69699,0.40476 -17.54167,-0.36446 -26.27436,-0.45569c0.52078,1.57103 1.03246,3.14894 1.30943,4.78527l0.13921,0.32088c0,0 0.79057,2.3717 -1.58114,3.16227c-0.0796,0.02653 -0.15742,0.0495 -0.23349,0.06912c-0.39058,1.2619 -1.81861,1.61891 -1.81861,1.61891l-1.09307,0.26781c-2.77913,0.50267 -5.67786,0.32713 -8.46482,0.61726c1.99422,6.12848 10.3025,42.09001 16.23594,76.5432c3.43073,19.9209 4.1604,32.47744 4.18981,37.52713c4.93709,0.36233 10.31706,2.73048 11.95585,7.40742c0.38277,1.09239 0.23621,2.30294 0.35432,3.45441c-0.05099,0.2697 -0.07618,0.54849 -0.10107,0.82738c2.30638,-0.92057 3.95652,-0.29122 6.33359,0.74997c2.43606,1.06702 3.89425,2.01103 5.38455,4.2517c0.2371,0.35649 -0.19436,1.23033 0.23251,1.26319c1.57204,0.12104 2.65335,-1.75382 4.13078,-2.30443c5.42433,-2.02152 8.5186,-0.86983 11.80858,3.7022l0.95263,0.67998c0,0 1.92055,1.60046 0.32009,3.52102zM256.90804,36.40651c0,-1.38071 1.11929,-2.5 2.5,-2.5c0.47751,0 0.92376,0.13388 1.30325,0.36615c-5.47404,-4.83349 -15.46973,-3.70481 -17.55402,3.93106c-0.48168,1.76465 0.01621,2.77308 0.449,4.50189c0.32725,-0.0386 0.63444,-0.08033 0.91494,-0.12911c6.35107,-1.10451 12.82694,-1.15078 19.29004,-1.36764l-0.095,-0.38777c-0.31608,-1.85563 -0.88523,-4.13115 -2.15552,-5.68656c0.22066,0.37264 0.34732,0.80751 0.34732,1.27197c0,1.38071 -1.11929,2.5 -2.5,2.5c-1.38071,0 -2.5,-1.11929 -2.5,-2.5zM271.15255,47.34937c0.03491,-0.5793 0.21134,-1.16741 0.10473,-1.73788c-0.15024,-0.804 -1.62937,0.15447 -2.43805,0.27703c-1.91811,0.29071 -3.87614,0.17391 -5.81462,0.25077c-5.91562,0.23457 -11.84524,0.35773 -17.64823,1.36697c-1.75362,0.30499 -3.51787,0.54683 -5.27106,0.85424c-0.35378,0.06204 -0.83353,-0.2225 -1.07674,0.04181c-0.8144,0.88506 1.7548,3.42488 2.09699,3.73954c0,0 0.32869,0.32869 0.56087,0.84433c3.93348,-1.0218 7.50484,-2.90113 11.73783,-3.22648c6.01139,-0.33382 11.96946,-1.16229 17.97996,-0.76042zM206.7324,87.75538c0,-1.38071 1.11929,-2.5 2.5,-2.5c1.1304,0 2.08558,0.75024 2.39476,1.77996c1.06862,-0.20549 2.15993,-0.30209 3.24507,-0.38468c0.31223,-0.02376 5.84635,0.0067 6.24512,0.00462c0.60198,-0.00315 1.82561,0.00581 1.70867,-0.5847c-0.21632,-1.09231 -0.75906,-2.16145 -1.3972,-3.19586c-0.30927,1.02957 -1.26436,1.77967 -2.39466,1.77967c-1.38071,0 -2.5,-1.11929 -2.5,-2.5c0,-1.38071 1.11929,-2.5 2.5,-2.5c0.09868,0 0.19603,0.00572 0.29173,0.01684c-0.04325,-0.07106 -0.08563,-0.14185 -0.12705,-0.21237c-0.05636,-0.09596 -0.11198,-0.19192 -0.16689,-0.2879c-0.74041,-0.19199 -1.82447,-0.75418 -1.82447,-2.40044c0,-0.38611 0.05963,-0.71258 0.16048,-0.98863c-0.5214,-1.24769 -0.96299,-2.51722 -1.36481,-3.82995c-0.223,0.06521 -0.45891,0.10019 -0.70298,0.10019c-1.38071,0 -2.5,-1.11929 -2.5,-2.5c0,-1.30357 0.9977,-2.3741 2.27116,-2.48966c-0.01028,-0.51805 0.07986,-1.08371 -0.20132,-1.48696c-0.18678,-0.26785 -0.58879,0.28814 -0.85753,0.47365c-0.65168,0.44984 -1.22255,1.01536 -1.89809,1.42852c-0.78377,0.47938 -1.64807,0.81295 -2.46237,1.23842c-1.81984,0.95086 -3.65694,1.87476 -5.41881,2.92913c-0.87811,0.52549 -2.59372,0.99446 -2.341,1.9861c0.40774,1.59994 1.67917,2.87044 2.20397,4.43589c0.91421,2.72703 1.55441,5.53884 2.39141,8.29055c0.13481,0.7897 -0.09316,1.74123 0.40441,2.3691c0.01895,0.02392 0.0394,0.04278 0.06117,0.05716c-0.14181,-0.31373 -0.22075,-0.66197 -0.22075,-1.02864zM277.44504,75.61988c0,-1.38071 1.11929,-2.5 2.5,-2.5c0.39063,0 0.76034,0.08959 1.08969,0.24935c-0.57943,-1.75674 -1.16757,-3.5085 -1.4615,-5.34824c-0.54298,-3.39862 -0.65481,-6.0039 -1.76588,-9.37445c-0.24009,-0.72833 -0.32827,-1.60202 -0.50667,-2.40375c-0.11442,1.27461 -1.18549,2.27359 -2.48988,2.27359c-1.38071,0 -2.5,-1.11929 -2.5,-2.5c0,-0.85738 0.4316,-1.61395 1.08939,-2.06431c-0.54431,0.0701 -1.09039,0.13811 -1.60927,0.09275c-6.03476,-0.5277 -12.03802,0.3696 -18.06986,0.70486c-4.83246,0.31304 -8.85386,2.92504 -13.59705,3.65291c0.48056,0.4556 0.78028,1.10007 0.78028,1.81455c0,1.38071 -1.11929,2.5 -2.5,2.5c-0.41285,0 -0.80232,-0.10007 -1.14549,-0.27728c0.00819,2.07322 -0.24765,4.1018 0.08962,6.20576c0.7568,4.72112 3.8547,8.17757 6.3807,11.95308c-0.08012,-0.24487 -0.12345,-0.5064 -0.12345,-0.77805c0,-1.38071 1.11929,-2.5 2.5,-2.5c1.38071,0 2.5,1.11929 2.5,2.5c0,1.38071 -1.11929,2.5 -2.5,2.5c-0.64955,0 -1.24124,-0.24772 -1.68576,-0.65385c0.48553,0.78073 0.93633,1.58067 1.32809,2.41305c6.00072,-3.00629 12.87607,-3.22888 19.54513,-3.73244c2.04424,-0.15435 3.98882,-0.95222 5.99791,-1.36001c3.4535,-0.70096 7.04283,-0.30081 10.54295,-0.94079l0.47482,-0.12205c-0.06445,-0.34237 -0.13821,-0.68179 -0.21929,-1.01888c-0.43712,0.72748 -1.23395,1.21423 -2.14446,1.21423c-1.38071,0 -2.5,-1.11929 -2.5,-2.5zM284.71022,63.99997c0.55244,-1.1025 1.07204,-2.2225 1.55409,-3.35796c-0.01505,-0.02068 -0.02999,-0.04178 -0.04479,-0.0633c-0.89844,0.05435 -1.79683,0.11084 -2.69517,0.16956c0.28416,1.42238 0.47426,2.81885 0.6734,4.27665zM289.18236,66.23604l-0.77302,1.54605c2.5202,0.05721 5.04693,0.15632 7.57453,0.2533c-1.41819,-1.44528 -2.73367,-3.15248 -4.27059,-4.07744c-0.37873,-0.22793 -0.76607,-0.44129 -1.1572,-0.64818c-0.43398,0.98651 -0.89269,1.96229 -1.37371,2.92626zM283.91744,199.55458c4.04675,-1.10772 -0.8218,-2.76102 -2.93374,-3.99321c0.21234,1.67514 0.32699,5.2124 0.586,5.05757zM283.96107,183.83954c0.63279,-0.47311 1.90337,-1.13965 1.51157,-1.82576c-0.77776,-1.36202 -2.34196,-2.11101 -3.30593,-3.34825c-1.15527,-1.48278 -2.11842,-3.11969 -3.37518,-4.51748c-0.16562,-0.1842 -0.3384,-0.36465 -0.51513,-0.54326c0.1363,0.82092 0.27056,1.64188 0.40193,2.46296c0.55347,3.45925 0.93935,6.94189 1.3046,10.42669c1.1121,-0.82853 3.36196,-2.1942 3.97814,-2.65488zM278.34948,162.42253c1.33249,-1.9468 2.50114,-3.93565 3.50615,-6.02931c-2.43173,-0.5954 -4.65348,-1.16652 -6.83171,-2.56646c0.5038,3.5678 1.09255,7.12651 1.69961,10.68146c0.62654,-0.80329 1.26032,-1.55148 1.62595,-2.08569zM282.47409,165.24876c-0.73913,1.08062 -2.40112,1.64911 -2.60101,2.94298c-0.18811,1.21758 1.80107,1.68593 2.62571,2.60127c1.93417,2.14691 3.54894,4.5583 5.38252,6.78448c0.01893,0.02299 0.03811,0.04588 0.0575,0.06867c-0.77783,-5.65731 -1.69605,-11.31038 -2.67385,-16.9489c-0.84503,1.55534 -1.77495,3.06622 -2.79086,4.5515zM287.13101,187.70625c-1.57853,1.37839 -5.53201,1.97304 -3.14194,3.94459c1.89035,1.30063 4.1785,2.53413 5.56195,4.08487c-0.16218,-3.24912 -0.34176,-6.49787 -0.6297,-9.74745c-0.52065,0.59026 -1.1363,1.1469 -1.79031,1.718zM275.65315,139.52849c0.00778,-0.01432 3.06201,-5.16083 2.39051,-5.89739c-1.38741,-1.52183 -4.6218,-1.68524 -6.4708,-2.55186c0.67057,4.04401 1.34624,8.07966 2.06066,12.09451c0.65873,-1.2455 1.37796,-2.46451 2.01963,-3.64526zM270.16754,95.6343c0.21984,-0.20747 1.31318,-1.39566 0.9333,-2.02133c-0.75543,-1.24425 -2.29687,-1.79262 -3.5041,-2.60589c-0.62745,-0.42269 -1.24361,-0.87919 -1.93529,-1.18568c-0.92933,-0.41179 -1.56797,-0.523 -2.27004,-0.53883c0.84805,3.22608 1.62183,6.47534 2.33965,9.74098c1.46551,-1.27777 3.29987,-2.3166 4.43649,-3.38925zM271.23827,101.14293c-0.67813,0.5425 -1.36634,1.0723 -2.05274,1.60429c-0.24714,0.19154 -0.78572,0.25588 -0.74782,0.56625c0.17719,1.45122 1.77076,2.35253 2.86935,3.31718c1.34787,1.18355 2.94044,1.90166 4.3854,2.65102c-0.68077,-3.32672 -1.40645,-6.64166 -2.20172,-9.93721c-0.73152,0.64496 -1.52959,1.22019 -2.25246,1.79847zM273.50168,125.83166c-0.22818,0.28129 -0.85258,0.22189 -0.92032,0.57771c-0.05093,0.26748 0.55036,-0.08973 0.81625,-0.0311c0.95373,0.21028 1.90091,0.47299 2.80973,0.83058c1.1264,0.44321 2.18007,0.89149 3.10355,1.41663c-0.43776,-2.44182 -0.87403,-4.88521 -1.31845,-7.3272c-0.41226,-0.04227 -0.36169,-1.713 -0.78145,-1.74559c-0.15553,0.19634 -2.66444,4.99093 -3.70931,6.27898zM277.79151,146.42315c-0.35663,0.79326 -0.65619,1.62973 -1.16687,2.33375c-0.19148,0.26397 -1.10325,0.24381 -0.86181,0.46301c0.36003,0.32686 1.00249,-0.09629 1.45678,0.07716c2.28703,0.87321 4.07457,1.72631 6.44005,2.38019c-0.26484,-1.46154 -0.5308,-2.92172 -0.79644,-4.38037c-0.51779,-2.45898 -1.0085,-4.92747 -1.48229,-7.40233c-1.14885,2.26871 -2.67595,4.49677 -3.58941,6.52859zM231.82056,68.11959c-1.63449,0.77287 -0.10386,3.88656 -1.26162,5.27526c-0.60755,0.72874 -1.24787,1.23275 -1.90611,1.5517c2.0154,0.31379 4.0203,0.73716 6.07628,1.27078c-1.49269,-2.84677 -1.88968,-5.50439 -2.06764,-8.22047c-0.29379,-0.01188 -0.58149,0.00008 -0.8409,0.12274zM225.165,69.47159c0.46563,0.30984 1.37102,1.42381 1.43578,0.86827c0.11895,-1.02032 -0.26749,-2.12188 0.10296,-3.07999c0.01484,-0.03839 0.02994,-0.07677 0.0453,-0.11513c-0.22571,0.10277 -0.44184,0.21721 -0.64622,0.34508c-0.62419,0.39053 -1.22584,0.92641 -1.84514,1.46691c0.30195,0.17168 0.62005,0.32371 0.90732,0.51487zM387.62097,59.85435c-1.45114,-0.31262 -3.4576,2.34705 -4.97689,4.22507c1.15596,0.1526 2.32268,0.30119 3.52852,0.39487c1.65882,0.12887 3.31351,0.04077 4.96566,-0.14436c-1.20772,-1.74098 -1.78741,-4.1029 -3.51728,-4.47558zM368.89706,61.37867c-0.37899,-0.25216 -2.854,-1.97295 -3.33321,-1.98583c-1.07194,-0.02882 -1.22683,1.75937 -1.81799,2.65404c-0.49145,0.74378 -1.09939,1.65084 -1.8058,2.54818c1.48699,0.01766 2.96917,-0.00443 4.43822,-0.12359c1.66697,-0.13522 3.31802,-0.37314 4.9753,-0.57854c-0.86692,-0.78021 -1.68531,-1.64882 -2.45653,-2.51426zM349.80801,63.7234c-0.46935,-0.68414 -0.83154,-1.4528 -1.39682,-2.06008c-0.39415,-0.42343 -1.49589,-1.12309 -1.64153,-0.56323c-0.28605,1.09964 0.11599,2.35008 -0.33731,3.39198c-0.05723,0.13156 -0.12352,0.26707 -0.19815,0.40553c1.38576,-0.11225 2.77155,-0.21818 4.15662,-0.30112c-0.19349,-0.29296 -0.38594,-0.58611 -0.58281,-0.87307zM331.93259,62.71254c-0.38573,-0.4729 -0.18032,-1.52202 -0.7751,-1.65861c-0.48683,-0.1118 -0.30026,1.04009 -0.71661,1.31605c-0.81932,0.54306 -1.84985,0.66542 -2.77478,0.99812c-0.64267,0.90946 -1.52847,2.15274 -2.56984,3.37668c1.63873,0.07434 3.2797,0.1718 4.89381,0.05908c1.86279,-0.13008 3.64819,-0.47251 5.44353,-0.79329c-1.19061,-1.07877 -2.48748,-2.05548 -3.50101,-3.29804zM311.06649,63.79482c-0.56838,-0.6028 -1.24812,-1.09317 -1.82078,-1.6919c-0.19707,-0.20605 -0.28023,-0.91677 -0.47674,-0.71019c-0.37444,0.39361 -0.11334,1.10544 -0.35981,1.58958c-0.92421,1.81542 -1.8413,3.8314 -3.22303,5.31817c2.2957,0.0245 4.58637,0.00291 6.86772,-0.09798c0.58756,-0.02599 1.16468,-0.0858 1.73522,-0.16739c-0.91024,-1.4406 -1.63686,-3.0888 -2.72258,-4.24029zM297.12406,61.92765c0.69318,0.67886 1.15011,1.56826 1.81039,2.27917c0.54613,0.588 1.624,1.67179 2.15613,1.07108c0.98498,-1.11193 1.96657,-3.5215 3.12903,-5.52646c-3.13819,0.10308 -6.27559,0.22532 -9.41231,0.37036c0.80525,0.51154 1.58416,1.08838 2.31676,1.80585zM317.34975,63.5826c0.48521,0.75369 0.13319,2.89149 0.94745,2.51669c2.54026,-1.16928 4.67775,-4.66632 6.38907,-6.74625c0.03342,-0.01355 0.06687,-0.02705 0.10034,-0.04047c-3.59648,0.04201 -7.19169,0.09873 -10.78574,0.17563c1.44342,1.40155 2.64283,2.99767 3.34888,4.09439zM339.7132,63.19553c0.31788,0.44025 0.05465,1.2372 0.4977,1.55117c0.26785,0.18981 0.2778,-0.59925 0.46954,-0.86572c0.36582,-0.50842 0.97522,-0.86307 1.19611,-1.44917c0.37277,-0.98905 0.25378,-2.19423 0.46227,-3.23074c-2.15054,0.00509 -4.30054,0.01227 -6.45004,0.02271c1.66811,1.52333 3.25711,3.18606 3.82443,3.97176zM353.91083,60.86562c0.64524,0.90486 0.89074,2.65531 2.00203,2.66605c0.44597,0.00431 0.66685,-0.59287 0.98637,-0.90402c1.13315,-1.10341 1.89586,-2.53605 2.76806,-3.84495c-2.33646,0.04763 -4.67055,0.14532 -7.00151,0.31483c0.42649,0.57764 0.82871,1.18424 1.24504,1.76808zM377.37402,62.14721c1.04659,0.27166 1.58544,-1.4738 2.31894,-2.26823c0.22694,-0.24579 0.46679,-0.50452 0.71862,-0.76961c-2.35699,-0.05837 -4.71395,-0.13117 -7.07007,-0.19626c1.21097,1.32626 2.81473,2.918 4.03251,3.2341zM394.7617,61.27916c0.83747,0.45908 1.39255,-1.30747 2.07945,-1.97101c0.11313,-0.10929 0.22771,-0.21702 0.34337,-0.32359c-1.43764,0.08251 -2.87598,0.13999 -4.31483,0.1775c0.40764,0.81956 0.92013,1.58434 1.89202,2.11711zM406.98197,56.31482c-0.13308,1.71983 -0.26729,3.55547 -0.32322,5.11919c-0.02972,0.8311 0.19735,1.68676 0.00108,2.49489c-0.0854,0.3516 -1.14756,0.78889 -0.78825,0.74626c0.77327,-0.09176 1.37599,-0.84794 2.15236,-0.90812c1.04444,-0.08096 2.07052,0.32111 3.10257,0.50077c1.20361,0.20954 2.48067,1.01519 3.61992,0.57395c0.77257,-0.29923 -0.22439,-4.99435 -0.23554,-5.36556c-0.01753,-0.58362 0.38187,-1.23514 0.10383,-1.74856c-0.58504,-1.08031 -3.01297,-0.81512 -3.71945,-0.88611c-1.04264,-0.10476 -2.50845,-0.31427 -3.91329,-0.52671zM401.58551,63.06332c-0.02449,-0.40003 -0.0362,-0.80277 -0.03762,-1.2074c-0.39166,0.38714 -0.79225,0.80136 -1.206,1.21521zM222.5644,74.33552c0.28716,0.0133 0.57297,0.02864 0.8576,0.04603c-0.42937,-0.2472 -0.84975,-0.53009 -1.25686,-0.83728c0.13086,0.2655 0.26414,0.52908 0.39926,0.79126zM269.34343,84.62434c-0.85261,0.22141 -1.70725,0.42903 -2.57197,0.56987c1.06705,0.32281 2.13805,0.73415 3.15364,1.23231c-0.19029,-0.60177 -0.38413,-1.20251 -0.58167,-1.80218zM268.41228,111.88153c0.0683,0.40246 1.53662,9.43982 1.60447,9.84231c0.28086,-0.39474 3.83249,-6.14389 4.10729,-6.50328c-0.35068,-0.0364 -5.36745,-3.32989 -5.71176,-3.33903z"/><path d="M201.1314,74.91975c0,-1.38071 1.11929,-2.5 2.5,-2.5c1.38071,0 2.5,1.11929 2.5,2.5c0,1.38071 -1.11929,2.5 -2.5,2.5c-1.38071,0 -2.5,-1.11929 -2.5,-2.5z"/><path d="M405.56793,60.21713c0,-1.38071 1.11929,-2.5 2.5,-2.5c1.38071,0 2.5,1.11929 2.5,2.5c0,1.38071 -1.11929,2.5 -2.5,2.5c-1.38071,0 -2.5,-1.11929 -2.5,-2.5z"/><path d="M248.50653,37.10663c0,-1.38071 1.11929,-2.5 2.5,-2.5c1.38071,0 2.5,1.11929 2.5,2.5c0,1.38071 -1.11929,2.5 -2.5,2.5c-1.38071,0 -2.5,-1.11929 -2.5,-2.5z"/></g></g></svg>